<?xml version="1.0" encoding="UTF-8"?>
<svg width="94px" height="80px" viewBox="0 0 94 80" version="1.1" xmlns="http://www.w3.org/2000/svg" xmlns:xlink="http://www.w3.org/1999/xlink">
    <!-- Generator: sketchtool 50.2 (55047) - http://www.bohemiancoding.com/sketch -->
    <title>18B0E16D-35B8-43E4-9A3A-82AC8ECB50DD</title>
    <desc>Created with sketchtool.</desc>
    <defs>
        <circle id="path-1" cx="28" cy="28" r="28"></circle>
        <filter x="-5.4%" y="-3.6%" width="110.7%" height="114.3%" filterUnits="objectBoundingBox" id="filter-2">
            <feOffset dx="0" dy="3" in="SourceAlpha" result="shadowOffsetOuter1"></feOffset>
            <feGaussianBlur stdDeviation="0.5" in="shadowOffsetOuter1" result="shadowBlurOuter1"></feGaussianBlur>
            <feColorMatrix values="0 0 0 0 0.874509804   0 0 0 0 0.874509804   0 0 0 0 0.874509804  0 0 0 1 0" type="matrix" in="shadowBlurOuter1"></feColorMatrix>
        </filter>
        <polygon id="path-3" points="0.00700854701 0.0996936484 40.889849 0.0996936484 40.889849 22.8072733 0.00700854701 22.8072733"></polygon>
    </defs>
    <g id="Page-1" stroke="none" stroke-width="1" fill="none" fill-rule="evenodd">
        <g id="avslutade" transform="translate(-1297.000000, -692.000000)">
            <g id="Icon_BytCampus" transform="translate(1296.000000, 692.000000)">
                <g id="Group" transform="translate(20.000000, 0.000000)">
                    <g id="Oval">
                        <use fill="black" fill-opacity="1" filter="url(#filter-2)" xlink:href="#path-1"></use>
                        <use fill="#0094BB" fill-rule="evenodd" xlink:href="#path-1"></use>
                    </g>
                    <g id="Byggnad_Purple_srgb" transform="translate(8.000000, 15.000000)">
                        <g id="Group-3">
                            <mask id="mask-4" fill="white">
                                <use xlink:href="#path-3"></use>
                            </mask>
                            <g id="Clip-2"></g>
                            <path d="M0.934472934,21.8667672 L39.9553761,21.8667672 L39.9553761,20.7800124 L0.934472934,20.7800124 L0.934472934,21.8667672 Z M2.13877493,19.8395063 L38.7364729,19.8395063 L38.7364729,18.7531042 L2.13877493,18.7531042 L2.13877493,19.8395063 Z M3.42075499,17.812598 L15.6733305,17.812598 L15.6733305,15.7318458 L3.42075499,15.7318458 L3.42075499,17.812598 Z M15.7326695,4.14292945 C15.6952906,4.37970186 15.6750826,4.62235244 15.6736809,4.86923529 L15.6736809,5.2295667 L3.42075499,5.2295667 L3.42075499,4.14292945 L15.7326695,4.14292945 Z M16.608037,4.89874367 C16.608037,2.77120127 18.3274672,1.04019977 20.4411282,1.04019977 C22.5552564,1.04019977 24.2751538,2.77120127 24.2751538,4.89874367 L24.2805271,4.89933149 L24.2805271,10.0103944 L16.6078034,10.0103944 L16.6078034,4.89874367 L16.608037,4.89874367 Z M37.4622023,4.14292945 L37.4622023,5.2295667 L25.215,5.2295667 L25.215,4.86923529 L25.20951,4.86876504 C25.2081083,4.62199975 25.1879003,4.3795843 25.1505214,4.14292945 L37.4622023,4.14292945 Z M25.215,17.812598 L37.4622023,17.812598 L37.4622023,15.7318458 L25.215,15.7318458 L25.215,17.812598 Z M25.215,14.7913397 L28.676755,14.7913397 L28.676755,10.9509005 L25.215,10.9509005 L25.215,14.7913397 Z M29.6112279,10.0103944 L33.0729829,10.0103944 L33.0729829,6.17007282 L29.6112279,6.17007282 L29.6112279,10.0103944 Z M34.0074558,10.0103944 L37.4622023,10.0103944 L37.4622023,6.17007282 L34.0074558,6.17007282 L34.0074558,10.0103944 Z M34.0074558,14.7913397 L37.4622023,14.7913397 L37.4622023,10.9509005 L34.0074558,10.9509005 L34.0074558,14.7913397 Z M29.6112279,14.7913397 L33.0729829,14.7913397 L33.0729829,10.9509005 L29.6112279,10.9509005 L29.6112279,14.7913397 Z M25.215,10.0103944 L28.676755,10.0103944 L28.676755,6.17007282 L25.215,6.17007282 L25.215,10.0103944 Z M20.9119858,17.812598 L24.2805271,17.812598 L24.2805271,10.9509005 L20.9119858,10.9509005 L20.9119858,17.812598 Z M16.6078034,17.812598 L19.9775128,17.812598 L19.9775128,10.9509005 L16.6078034,10.9509005 L16.6078034,17.812598 Z M12.2274615,14.7913397 L15.6734473,14.7913397 L15.6734473,10.9509005 L12.2274615,10.9509005 L12.2274615,14.7913397 Z M7.84711966,14.7913397 L11.2929886,14.7913397 L11.2929886,10.9509005 L7.84711966,10.9509005 L7.84711966,14.7913397 Z M7.84711966,10.0103944 L11.2929886,10.0103944 L11.2929886,6.17007282 L7.84711966,6.17007282 L7.84711966,10.0103944 Z M12.2274615,10.0103944 L15.6735641,10.0103944 L15.6735641,6.17007282 L12.2274615,6.17007282 L12.2274615,10.0103944 Z M3.42075499,10.0103944 L6.91264672,10.0103944 L6.91264672,6.17007282 L3.42075499,6.17007282 L3.42075499,10.0103944 Z M3.42075499,14.7913397 L6.91264672,14.7913397 L6.91264672,10.9509005 L3.42075499,10.9509005 L3.42075499,14.7913397 Z M39.6709459,19.8395063 L39.6709459,17.812598 L38.3966752,17.812598 L38.3966752,3.20242333 L24.9013675,3.20242333 C24.2188519,1.39100855 22.4773447,0.0996936484 20.4411282,0.0996936484 C18.4053789,0.0996936484 16.6641054,1.39100855 15.9817066,3.20242333 L2.48628205,3.20242333 L2.48628205,17.812598 L1.20430199,17.812598 L1.20430199,19.8395063 L0,19.8395063 L0,22.8072733 L40.889849,22.8072733 L40.889849,19.8395063 L39.6709459,19.8395063 Z" id="Fill-1" fill="#FFFFFF" mask="url(#mask-4)"></path>
                        </g>
                        <path d="M20.0755157,3.90621618 L20.0755157,5.98191812 L22.0787631,5.98191812 C21.8720392,6.65786625 21.2426352,7.15108555 20.5,7.15108555 C19.5895874,7.15108555 18.8489685,6.41030158 18.8489685,5.49984083 C18.8489685,4.73645451 19.3705535,4.09425073 20.0755157,3.90621618 Z M22.1085831,5.13300367 L20.9244843,5.13300367 L20.9244843,3.90621618 C21.5128194,4.06315924 21.9724297,4.53653516 22.1085831,5.13300367 Z M20.5,8 C21.8785126,8 23,6.8784779 23,5.49984083 C23,4.12141599 21.8785126,3 20.5,3 C19.1214874,3 18,4.12141599 18,5.49984083 C18,6.8784779 19.1214874,8 20.5,8 Z" id="Fill-4" fill="#FFFFFF"></path>
                    </g>
                </g>
                <text id="Byt-Campus" font-family="OpenSans-Bold, Open Sans" font-size="16" font-weight="bold" fill="#0094BB">
                    <tspan x="0" y="76">Byt Campus</tspan>
                </text>
            </g>
        </g>
    </g>
</svg>