<svg xmlns="http://www.w3.org/2000/svg" viewBox="0 0 80 80"><defs><style>.cls-1{fill:#0094bb;}.cls-2{fill:#fff;}</style></defs><title>Asset 3</title><g id="Layer_2" data-name="Layer 2"><g id="Layer_1-2" data-name="Layer 1"><circle class="cls-1" cx="40" cy="40" r="40"/><path class="cls-2" d="M68.5,48.4v-3H66.6V23.8H46.4a7.09,7.09,0,0,0-6.7-4.6A7.29,7.29,0,0,0,33,23.8H13V45.4H11.1v3H9.3v4.4h61V48.4ZM14.4,35.3h5.2V41H14.4Zm0-7.1h5.2v5.7H14.4Zm18.3,5.7H27.6V28.2h5.1Zm-6.6,0H21V28.2h5.1ZM21,35.3h5.1V41H21Zm6.5,0h5.2V41H27.6V35.3Zm6.6,0h5V45.5h-5Zm6.4,0h5V45.5h-5Zm6.4-7.1h5.2v5.7H46.9Zm6.6,12.7V35.2h5.2v5.7ZM60,35.3h5.2V41H60Zm5.2-1.4H60V28.2h5.2Zm-6.6,0H53.4V28.2h5.2Zm-6.5,1.4V41H46.9V35.3Zm-5.2,7H65.2v3.1H46.9ZM65.2,25.2v1.6H46.9v-.5h0a4.1,4.1,0,0,0-.1-1.1ZM34.1,26.3a5.7,5.7,0,0,1,11.4,0h0v7.6H34.1V26.3Zm-1.3-1.1a3.4,3.4,0,0,0-.1,1v.5H14.4V25.1H32.8ZM14.4,42.3H32.7v3.1H14.4Zm-1.9,4.5H67.1v1.6H12.5Zm56.4,4.6H10.7V49.8H68.9Z"/><path class="cls-2" d="M39.8,31.5a4.1,4.1,0,1,0-4.1-4.1A4.12,4.12,0,0,0,39.8,31.5Zm2.6-4.7H40.5v-2A2.59,2.59,0,0,1,42.4,26.8Zm-3.3-2v3.4h3.3a2.71,2.71,0,0,1-5.3-.8A2.59,2.59,0,0,1,39.1,24.8Z"/></g></g></svg>