<?xml version="1.0" encoding="utf-8"?>
<!-- Generator: Adobe Illustrator 22.1.0, SVG Export Plug-In . SVG Version: 6.00 Build 0)  -->
<svg version="1.1" id="Layer_1" xmlns="http://www.w3.org/2000/svg" xmlns:xlink="http://www.w3.org/1999/xlink" x="0px" y="0px"
	 viewBox="0 0 99.1 99.9" style="enable-background:new 0 0 99.1 99.9;" xml:space="preserve">
<style type="text/css">
	.st0{fill:#59539B;}
	.st1{fill:#FFFFFF;}
</style>
<circle class="st0" cx="50.3" cy="40" r="40"/>
<g>
	<path class="st1" d="M78.8,48.4v-3h-1.9V23.8H56.7c-1-2.7-3.6-4.6-6.7-4.6c-3,0-5.6,1.9-6.7,4.6H23.3v3.7v6.9v11h-1.9v3h-1.8v4.4
		h61v-4.4H78.8z M24.7,35.3h5.2v5.7h-5.2V35.3z M24.7,28.2h5.2v5.7h-5.2V28.2z M43,33.9h-5.1v-5.7H43L43,33.9z M36.4,33.9h-5.1v-5.7
		h5.1V33.9z M31.3,35.3h5.1v5.7h-5.1V35.3z M37.8,35.3H43l0,5.7h-5.1V35.3z M44.4,35.3h5v10.2h-5V35.3z M50.8,35.3h5v10.2h-5V35.3z
		 M57.2,28.2h5.2v5.7h-5.2V28.2z M63.8,40.9v-5.7h5.2v5.7H63.8z M70.3,35.3h5.2v5.7h-5.2V35.3z M75.5,33.9h-5.2v-5.7h5.2V33.9z
		 M68.9,33.9h-5.2v-5.7h5.2V33.9z M62.4,35.3v5.7h-5.2v-5.7H62.4z M57.2,42.3h18.3v3.1H57.2V42.3z M75.5,25.2v1.6H57.2v-0.5l0,0
		c0-0.4,0-0.7-0.1-1.1H75.5z M44.4,26.3c0-3.2,2.6-5.7,5.7-5.7c3.2,0,5.7,2.6,5.7,5.7l0,0v7.6H44.4L44.4,26.3L44.4,26.3z M43.1,25.2
		C43,25.5,43,25.9,43,26.2v0.5H24.7v-1.6H43.1z M24.7,42.3H43l0,3.1H24.7V42.3z M22.8,46.8h0.5h53.6h0.5v1.6H22.8V46.8z M79.2,51.4
		H21v-1.6h0.4h57.4h0.4V51.4z"/>
	<path class="st1" d="M50.1,31.5c2.3,0,4.1-1.8,4.1-4.1c0-2.3-1.8-4.1-4.1-4.1c-2.3,0-4.1,1.8-4.1,4.1C46,29.6,47.8,31.5,50.1,31.5z
		 M52.7,26.8h-1.9v-2C51.7,25,52.5,25.8,52.7,26.8z M49.4,24.8v3.4h3.3c-0.3,1.1-1.4,1.9-2.6,1.9c-1.5,0-2.7-1.2-2.7-2.7
		C47.4,26.1,48.2,25.1,49.4,24.8z"/>
</g>
<g>
	<path class="st0" d="M9,94.6c1.3,0,1.7-0.2,1.7-0.7v-8.1c0-0.5-0.3-0.6-1.7-0.7v-0.5h4.3c3.2,0,4.1,1.2,4.1,2.5
		c0,0.8-0.5,2-2.5,2.4v0.1c2.1,0.2,3,1.4,3,2.5c0,1.7-1.2,3-4.5,3H9V94.6z M13.4,89.3c2,0,2.5-0.7,2.5-2c0-1.3-0.5-2.1-2.5-2.1h-1.2
		v4.1H13.4z M13.5,94.6c2.4,0,2.8-1,2.8-2.4c0-1.3-0.9-2.2-3-2.2h-1.2v4.7H13.5z"/>
	<path class="st0" d="M19.7,89.3c-0.3-0.7-0.5-0.9-1.2-1v-0.5h3.6v0.5c-1,0-1.2,0.3-1,0.8l1.8,4.4l1.5-3.7c0.4-1,0.3-1.3-0.8-1.5
		v-0.5h2.9v0.5c-0.5,0.1-1,0.4-1.3,1.2l-2.7,6.4c-0.8,2-1.6,2.5-2.5,2.5c-0.8,0-1.3-0.5-1.3-1.1c0-0.5,0.3-1,0.9-1
		c0.5,0,0.8,0.4,0.8,0.9c0,0.1,0,0.3-0.1,0.5c0.5,0,1-0.5,1.8-2.4l0.1-0.2L19.7,89.3z"/>
	<path class="st0" d="M28.1,93.3v-4.7h-1.4v-0.4l1.4-0.3v-2l1.3-0.6v2.7h2.3v0.7h-2.3v4.6c0,0.9,0.3,1.3,1,1.3
		c0.4,0,0.8-0.3,1.2-0.9l0.4,0.3c-0.6,1.1-1.1,1.5-2.2,1.5C28.7,95.3,28.1,94.6,28.1,93.3z"/>
	<path class="st0" d="M35.8,90c0-3.2,2.4-5.7,5.4-5.7c1.1,0,2,0.4,2.6,0.7l0.4-0.7h0.5v3.5h-0.5c-0.7-1.8-1.7-2.9-3.2-2.9
		c-1.8,0-3.5,1.7-3.5,5c0,3.1,2,4.6,3.8,4.6c1.8,0,2.8-1.1,3.4-2.4l0.5,0.3c-0.7,1.5-2,3-4.4,3C37.9,95.4,35.8,93.2,35.8,90z"/>
	<path class="st0" d="M46.5,93.5c0-0.6,0.3-1.3,1-1.7c1.2-0.7,3.1-0.9,3.4-1.1v-0.5c0-1.6-0.4-2.1-1.5-2.1c-0.5,0-0.8,0.1-1.1,0.4
		c0.1,0.3,0.2,0.5,0.2,0.8c0,0.5-0.3,0.9-0.8,0.9c-0.5,0-0.8-0.4-0.8-0.9c0-0.9,1.2-1.7,2.8-1.7c1.7,0,2.6,0.8,2.6,2.3v3.7
		c0,0.8,0.2,1,1.2,0.8l0.1,0.4c-0.6,0.2-1,0.3-1.5,0.3c-0.8,0-1-0.4-1.1-1.2h-0.1c-0.6,0.7-1.5,1.3-2.4,1.3
		C47.1,95.2,46.5,94.4,46.5,93.5z M50.8,93.4v-2.1c-2.3,0.5-2.8,0.8-2.8,1.9c0,0.7,0.4,1.2,1.2,1.2C49.8,94.4,50.5,93.9,50.8,93.4z"
		/>
	<path class="st0" d="M58.9,94.6c0.8,0,0.9-0.2,0.9-0.6v-3.6c0-1.4-0.6-1.8-1.5-1.8c-0.7,0-1.2,0.3-1.6,0.7v4.7
		c0,0.4,0.1,0.5,0.9,0.6v0.5h-3.4v-0.5c0.9,0,1.2-0.2,1.2-0.6v-5c0-0.5-0.2-0.8-1.2-0.8v-0.5l2.5-0.1v1.1c0.8-0.6,1.7-1.2,2.8-1.2
		c0.8,0,1.4,0.5,1.7,1.4c0.9-0.8,1.9-1.4,2.9-1.4c1.1,0,1.7,0.8,1.7,2.2v4.1c0,0.4,0.2,0.5,1.2,0.6v0.5h-3.4v-0.5
		c0.8,0,0.9-0.2,0.9-0.6v-3.6c0-1.4-0.5-1.8-1.5-1.8c-0.5,0-1.1,0.3-1.7,0.8c0,0.2,0,0.4,0,0.5v4c0,0.4,0.1,0.5,1.1,0.6v0.5h-3.3
		V94.6z"/>
	<path class="st0" d="M67.5,97.7c0.9,0,1.2-0.2,1.2-0.6v-8.1c0-0.5-0.2-0.8-1.2-0.8v-0.5l2.5-0.1v1c0.7-0.6,1.4-1.1,2.4-1.1
		c1.9,0,2.9,1.5,2.9,3.6c0,2.2-1.2,4-3.2,4c-0.8,0-1.4-0.2-2-0.5v2.4c0,0.4,0.4,0.5,1.5,0.6v0.5h-4V97.7z M73.8,91.3
		c0-1.8-0.8-2.9-1.9-2.9c-0.9,0-1.4,0.5-1.9,0.9v4c0.3,1,0.8,1.4,1.8,1.4C72.9,94.7,73.8,93.5,73.8,91.3z"/>
	<path class="st0" d="M77.5,93V89c0-0.5-0.3-0.6-1.2-0.6v-0.5l2.5-0.1v4.7c0,1.4,0.6,1.8,1.6,1.8c0.7,0,1.2-0.2,1.7-0.5V89
		c0-0.5-0.3-0.6-1.2-0.6v-0.5l2.5-0.1v6.3c0,0.4,0.2,0.5,1.2,0.6v0.5h-2.5v-0.9c-0.8,0.6-1.7,1.1-2.8,1.1
		C78.3,95.3,77.5,94.5,77.5,93z"/>
	<path class="st0" d="M85.8,92.8h0.5c0.7,1.2,1.5,2,2.4,2c0.9,0,1.3-0.6,1.3-1.2c0-0.8-0.4-1.1-1.9-1.5c-1.6-0.5-2.2-1-2.2-2
		c0-1.4,1-2.3,2.6-2.3c0.5,0,1.2,0.2,1.5,0.4l0.3-0.4h0.4v2.2h-0.5c-0.5-1-1.1-1.7-1.9-1.7c-0.8,0-1.3,0.5-1.3,1.2
		c0,0.7,0.5,1,1.8,1.4c1.5,0.4,2.2,1,2.2,2.1c0,1.3-0.8,2.5-2.5,2.5c-0.6,0-1.4-0.3-1.9-0.5l-0.5,0.5h-0.4V92.8z"/>
</g>
</svg>
