<?xml version="1.0" encoding="utf-8"?>
<!-- Generator: Adobe Illustrator 22.1.0, SVG Export Plug-In . SVG Version: 6.00 Build 0)  -->
<svg version="1.1" id="Layer_1" xmlns="http://www.w3.org/2000/svg" xmlns:xlink="http://www.w3.org/1999/xlink" x="0px" y="0px"
	 viewBox="0 0 100 57" style="enable-background:new 0 0 100 57;" xml:space="preserve">
<style type="text/css">
	.st0{fill:#FFFFFF;}
</style>
<g>
	<path class="st0" d="M97,48v-4.9h-3.1V7.6h-33C59.2,3.2,55,0.1,50,0.1c-5,0-9.2,3.1-10.9,7.5h-33v6.1V25v18.1H2.9V48H0v7.2h100V48
		H97z M8.4,26.4h8.5v9.3H8.4V26.4z M8.4,14.8h8.5v9.3H8.4V14.8z M38.3,24.2h-8.4v-9.3h8.4L38.3,24.2z M27.6,24.2h-8.4v-9.3h8.4V24.2
		z M19.2,26.4h8.4v9.3h-8.4V26.4z M29.9,26.4h8.4l0,9.3h-8.4V26.4z M40.6,26.4h8.2v16.7h-8.2V26.4z M51.1,26.4h8.2v16.7h-8.2V26.4z
		 M61.7,14.8h8.5v9.3h-8.5V14.8z M72.4,35.8v-9.3h8.5v9.3H72.4z M83.2,26.4h8.4v9.3h-8.4V26.4z M91.6,24.2h-8.4v-9.3h8.4V24.2z
		 M80.9,24.2h-8.5v-9.3h8.5V24.2z M70.1,26.4v9.3h-8.5v-9.3H70.1z M61.7,38.1h30v5.1h-30V38.1z M91.6,9.9v2.6h-30v-0.9l0,0
		c0-0.6-0.1-1.2-0.1-1.8H91.6z M40.6,11.7c0-5.2,4.2-9.4,9.4-9.4c5.2,0,9.4,4.2,9.4,9.4l0,0v12.4H40.6L40.6,11.7L40.6,11.7z
		 M38.5,9.9c-0.1,0.6-0.1,1.2-0.1,1.8v0.9h-30V9.9H38.5z M8.4,38.1h30l0,5.1h-30V38.1z M5.2,45.4h0.9h87.8h0.8V48H5.2V45.4z
		 M97.7,53H2.3v-2.6h0.7H97h0.7V53z"/>
	<path class="st0" d="M50,20.2c3.7,0,6.7-3,6.7-6.7c0-3.7-3-6.7-6.7-6.7c-3.7,0-6.7,3-6.7,6.7C43.3,17.2,46.3,20.2,50,20.2z
		 M54.3,12.5h-3.2V9.2C52.7,9.6,54,10.9,54.3,12.5z M48.9,9.2v5.6h5.4C53.7,16.6,52,18,50,18c-2.5,0-4.4-2-4.4-4.4
		C45.6,11.5,47,9.7,48.9,9.2z"/>
</g>
</svg>
