<svg xmlns="http://www.w3.org/2000/svg" viewBox="0 0 144 68.2"><defs><style>.cls-1{fill:#fff;}</style></defs><title>Asset 6</title><g id="Layer_2" data-name="Layer 2"><g id="Obs_Logo" data-name="Obs Logo"><path class="cls-1" d="M114.13,30.89c.18-3,3.89-3.77,8.69-3.77,6.83,0,7.81,4.57,7.81,6.08h11.12s2.17-15.8-20.46-15.8c-7.18,0-13.41,1.28-17.26,5.58a11.18,11.18,0,0,0,.55,15.52,15.87,15.87,0,0,0,3.16,2.3c2.34,1.36,5.67,2.06,8.7,2.59,5.2.9,10,2.13,10,2.13,4,1,4.54,3.72,4.54,3.72a8.19,8.19,0,0,1,.36,2.41c0,4.54-3.76,6.26-8.52,6.26-5.15,0-8.69-2.41-8.69-6.26l-.07-5.3H101v6c0,17.23,20.73,15.79,21.44,15.79,19.65,0,21.34-12.3,21.47-15.19,0-.42,0-.84.08-1.26.23-3,.6-16.1-19.28-16.1C124.67,35.62,113.82,35.81,114.13,30.89Z"/><path class="cls-1" d="M24.71,18.1A24.71,24.71,0,1,0,49.42,42.81,24.71,24.71,0,0,0,24.71,18.1Zm1.6,35.62A10.92,10.92,0,1,1,37.22,42.81,10.9,10.9,0,0,1,26.31,53.72Z"/><rect class="cls-1" x="53.38" y="55.29" width="14.46" height="12.23"/><path class="cls-1" d="M81.48,19s-15,.18-15,8V0H53.38V51.64H67.8V42.81s-.87-12,7.49-12c9.11,0,6.92,10.68,6.92,24.45H71.49V67.52H88.93A8.07,8.07,0,0,0,97,59.45V33.76S97.54,19,81.48,19Z"/></g></g></svg>