<svg xmlns="http://www.w3.org/2000/svg" viewBox="0 0 85 40.26"><defs><style>.cls-1{fill:#fff;}</style></defs><title>Asset 6</title><g id="Layer_2" data-name="Layer 2"><g id="S"><path class="cls-1" d="M14.59,10.68A14.59,14.59,0,1,0,29.17,25.27,14.59,14.59,0,0,0,14.59,10.68Zm0,20.83a6.25,6.25,0,1,1,6.24-6.24A6.24,6.24,0,0,1,14.59,31.51Z"/><rect class="cls-1" x="31.51" y="32.64" width="8.53" height="7.22"/><polygon class="cls-1" points="40.04 0 39.27 0 35.59 0 31.51 0 31.51 30.48 40.02 30.48 40.02 30.48 40.04 30.48 40.04 0"/><path class="cls-1" d="M48.1,11.2a18.22,18.22,0,0,0-6,1.17V18.9a3.81,3.81,0,0,1,2.3-.7c5.38,0,4.09,6.31,4.09,14.44H42.2v7.22H52.49a4.77,4.77,0,0,0,4.76-4.77V19.93S57.58,11.2,48.1,11.2Z"/><path class="cls-1" d="M67.37,18.24C67.48,16.46,69.66,16,72.5,16c4,0,4.61,2.7,4.61,3.59h6.56S85,10.27,71.6,10.27c-4.25,0-7.92.76-10.2,3.29a6.62,6.62,0,0,0,.33,9.17,9.33,9.33,0,0,0,1.87,1.35,16.11,16.11,0,0,0,5.13,1.53c3.07.53,5.92,1.26,5.92,1.26,2.37.62,2.68,2.19,2.68,2.19a5.1,5.1,0,0,1,.21,1.43c0,2.68-2.22,3.7-5,3.7-3,0-5.13-1.43-5.13-3.7l0-3.13H59.59v3.56c0,10.17,12.24,9.32,12.66,9.32,11.6,0,12.6-7.26,12.67-9,0-.25,0-.49,0-.74.13-1.77.35-9.5-11.38-9.5C73.59,21,67.19,21.14,67.37,18.24Z"/></g></g></svg>